<svg xmlns="http://www.w3.org/2000/svg" xmlns:xlink="http://www.w3.org/1999/xlink" viewBox="0 0 144.83 82.28"><defs><style>.cls-1{fill:none;}.cls-2{fill:#fdfdfd;}.cls-3{clip-path:url(#clip-path);}.cls-4{fill:#ffdf5c;}</style><clipPath id="clip-path"><rect class="cls-1" x="24.47" y="16.06" width="25.16" height="27.26"/></clipPath></defs><g id="Calque_2" data-name="Calque 2"><g id="Calque_1-2" data-name="Calque 1"><path class="cls-2" d="M30.32,1V39q0,7.77-4.27,11.86T13.8,55a17.34,17.34,0,0,1-4.18-.52,15.72,15.72,0,0,1-3.46-1.23,26.22,26.22,0,0,1-2.54-1.52A12.73,12.73,0,0,1,2,50.4l-.58-.52L5.24,39.79q3.81,3.62,6.9,3.61a5.65,5.65,0,0,0,4.41-1.84q1.69-1.83,1.69-5.62V1Z"/><path class="cls-2" d="M76.13,43.06a17.41,17.41,0,0,0,5.37-.83,17,17,0,0,0,3.81-1.6l1.23-.84,5.15,10.29L91,50.6a23.27,23.27,0,0,1-2.08,1.19,25.24,25.24,0,0,1-3.5,1.5,31.39,31.39,0,0,1-4.88,1.15,37.47,37.47,0,0,1-6.25.52,28.71,28.71,0,0,1-14-3.63,28.93,28.93,0,0,1-10.69-10A25.48,25.48,0,0,1,47.9,16.83,27.45,27.45,0,0,1,54.23,8a30.88,30.88,0,0,1,9.23-5.85A27.86,27.86,0,0,1,74.25,0a34.64,34.64,0,0,1,9.48,1.23,22.33,22.33,0,0,1,6.15,2.44l1.81,1.21L86.54,15.17a12.06,12.06,0,0,0-1.35-.92,19.93,19.93,0,0,0-3.61-1.46,17.33,17.33,0,0,0-5.45-.89,20.77,20.77,0,0,0-7.86,1.41A14.23,14.23,0,0,0,62.77,17a17.17,17.17,0,0,0-3.08,5,14.66,14.66,0,0,0-1,5.42,15.36,15.36,0,0,0,4.52,10.85Q67.7,43.06,76.13,43.06Z"/><path class="cls-2" d="M91.42,27.44A26.7,26.7,0,0,1,99.25,8a26.43,26.43,0,0,1,37.81,0,26.8,26.8,0,0,1,7.77,19.5A27.16,27.16,0,0,1,137.19,47a25.35,25.35,0,0,1-19,7.94Q106.52,55,99,47.08T91.42,27.44Zm13,0a21.3,21.3,0,0,0,1.29,7.62,12.75,12.75,0,0,0,12.42,8.21q6.75,0,10.18-4.62a18.29,18.29,0,0,0,3.44-11.21,18.1,18.1,0,0,0-3.5-11.15q-3.5-4.66-10.12-4.66T108,16.29A17.89,17.89,0,0,0,104.46,27.44Z"/><g class="cls-3"><path class="cls-2" d="M37.06,16.06A12.65,12.65,0,0,1,49.63,28.79v1.78a12.58,12.58,0,1,1-25.16,0V28.79A12.66,12.66,0,0,1,37.06,16.06"/></g><path class="cls-4" d="M22,38.67a6.69,6.69,0,0,1,.73-3.06,9.28,9.28,0,0,1,2.08-2.69,21.54,21.54,0,0,1,2.73-2.13c.93-.6,2-1.23,3.19-1.87q-3.62-4.5-3.61-7.94a8.45,8.45,0,0,1,3-6.77q3-2.54,8.44-2.54,5,0,7.83,2.81A9,9,0,0,1,49.16,21a6.42,6.42,0,0,1-.75,3,9.41,9.41,0,0,1-1.75,2.48,20.73,20.73,0,0,1-2.06,1.79,12.64,12.64,0,0,1-1.77,1.17l-.73.39,4.77,4.94q1.56-.69,5.25-4.5l5,4.94a40.89,40.89,0,0,1-5.08,4.9l7.73,8H49.52L46,44.4c-1.1.78-1.92,1.33-2.44,1.67s-1.29.76-2.31,1.29A12.2,12.2,0,0,1,38,48.42a18.73,18.73,0,0,1-3.56.31,19.71,19.71,0,0,1-3.36-.29,14,14,0,0,1-3.31-1,11.72,11.72,0,0,1-2.94-1.81,8.19,8.19,0,0,1-2.06-2.88A10,10,0,0,1,22,38.67ZM38.54,17.44a2.8,2.8,0,0,0-2.35,1A4,4,0,0,0,35.41,21a4,4,0,0,0,.65,2,8.63,8.63,0,0,0,1.31,1.75l.65.63q4-2.16,4-4.4Q42,17.44,38.54,17.44ZM40.66,39,35,33.4l-.42.14a7.72,7.72,0,0,0-.89.53,6.16,6.16,0,0,0-1.13.91,5.34,5.34,0,0,0-.9,1.31A4.08,4.08,0,0,0,31.27,38a2.5,2.5,0,0,0,1.21,2.23,5,5,0,0,0,2.81.77,7.44,7.44,0,0,0,2.65-.5,8,8,0,0,0,2-1Z"/><path class="cls-2" d="M2.52,82.21a3.11,3.11,0,0,1-1.44-.33A2.9,2.9,0,0,1,0,80.9l.56-.64a2.3,2.3,0,0,0,2,1.12c1.13,0,1.69-.67,1.69-2V73.84H.9V73H5.19v6.33a3,3,0,0,1-.69,2.15A2.53,2.53,0,0,1,2.52,82.21Z"/><path class="cls-2" d="M17.73,81.3v.83H11.27V73h6.25v.83H12.25v3.25H17v.81H12.25v3.4Z"/><path class="cls-2" d="M26.88,82.21a3.67,3.67,0,0,1-2.77-1,4,4,0,0,1-1-3V73h1v5.18a3.44,3.44,0,0,0,.71,2.38,2.72,2.72,0,0,0,2.08.77,2.67,2.67,0,0,0,2.06-.77,3.39,3.39,0,0,0,.73-2.38V73h.94v5.23a4.09,4.09,0,0,1-1,3A3.61,3.61,0,0,1,26.88,82.21Z"/><path class="cls-2" d="M44.34,73v9.12h-.8l-5.85-7.39v7.39h-1V73h.79l5.88,7.39V73Z"/><path class="cls-2" d="M57,81.3v.83H50.5V73h6.25v.83H51.48v3.25h4.71v.81H51.48v3.4Z"/><path class="cls-2" d="M64.94,82.21a5.64,5.64,0,0,1-2-.33A3.72,3.72,0,0,1,61.55,81l.39-.75a3.57,3.57,0,0,0,1.29.81,5,5,0,0,0,1.71.29,3,3,0,0,0,1.83-.44,1.38,1.38,0,0,0,.61-1.16,1.26,1.26,0,0,0-.33-.88,2,2,0,0,0-.82-.5A12.31,12.31,0,0,0,64.9,78q-1-.26-1.65-.48a2.86,2.86,0,0,1-1-.75,2,2,0,0,1-.44-1.34,2.3,2.3,0,0,1,.36-1.25,2.51,2.51,0,0,1,1.12-.91,4.75,4.75,0,0,1,1.88-.34,6.15,6.15,0,0,1,1.54.21,4.26,4.26,0,0,1,1.29.59l-.33.77a4.59,4.59,0,0,0-1.23-.57,4.69,4.69,0,0,0-1.27-.18,3,3,0,0,0-1.79.45,1.43,1.43,0,0,0-.61,1.19,1.18,1.18,0,0,0,.34.9,2.1,2.1,0,0,0,.83.5c.33.11.78.24,1.33.37a15,15,0,0,1,1.63.5,2.56,2.56,0,0,1,1,.73,1.9,1.9,0,0,1,.44,1.31A2.34,2.34,0,0,1,68,81a2.55,2.55,0,0,1-1.14.89A4.52,4.52,0,0,1,64.94,82.21Z"/><path class="cls-2" d="M76.16,82.21a5.57,5.57,0,0,1-2-.33A3.69,3.69,0,0,1,72.76,81l.4-.75a3.48,3.48,0,0,0,1.29.81,5,5,0,0,0,1.71.29A3.09,3.09,0,0,0,78,80.94a1.39,1.39,0,0,0,.6-1.16,1.22,1.22,0,0,0-.33-.88,2.06,2.06,0,0,0-.81-.5A13,13,0,0,0,76.12,78c-.69-.17-1.23-.33-1.65-.48a2.78,2.78,0,0,1-1-.75A2,2,0,0,1,73,75.44a2.29,2.29,0,0,1,.35-1.25,2.54,2.54,0,0,1,1.13-.91,4.7,4.7,0,0,1,1.87-.34,6.16,6.16,0,0,1,1.55.21,4.38,4.38,0,0,1,1.29.59l-.34.77a4.39,4.39,0,0,0-1.22-.57,4.82,4.82,0,0,0-1.28-.18,3,3,0,0,0-1.79.45A1.45,1.45,0,0,0,74,75.4a1.22,1.22,0,0,0,.33.9,2.07,2.07,0,0,0,.84.5c.33.11.77.24,1.33.37a14.11,14.11,0,0,1,1.62.5,2.59,2.59,0,0,1,1.05.73,1.9,1.9,0,0,1,.43,1.31A2.33,2.33,0,0,1,79.18,81a2.58,2.58,0,0,1-1.15.89A4.47,4.47,0,0,1,76.16,82.21Z"/><path class="cls-2" d="M91.31,81.3v.83H84.85V73H91.1v.83H85.83v3.25h4.71v.81H85.83v3.4Z"/><path class="cls-2" d="M109.91,82.28,108.66,81a4,4,0,0,1-3,1.25,4,4,0,0,1-1.6-.29,2.52,2.52,0,0,1-1.09-.81,2.1,2.1,0,0,1-.37-1.23,2.27,2.27,0,0,1,.52-1.46,6.73,6.73,0,0,1,1.77-1.37,4.77,4.77,0,0,1-.92-1.15,2.35,2.35,0,0,1-.23-1,1.74,1.74,0,0,1,.63-1.39,2.47,2.47,0,0,1,1.67-.55,2.26,2.26,0,0,1,1.54.5,1.65,1.65,0,0,1,.58,1.32,1.85,1.85,0,0,1-.46,1.23,5.94,5.94,0,0,1-1.56,1.18l2.5,2.59a5.59,5.59,0,0,0,.6-1.77l.75.22a6.19,6.19,0,0,1-.79,2.11l1.29,1.33ZM106,73.63a1.52,1.52,0,0,0-1.07.36,1.13,1.13,0,0,0-.37.89,1.54,1.54,0,0,0,.21.77,5.16,5.16,0,0,0,.81,1,5.7,5.7,0,0,0,1.37-1,1.3,1.3,0,0,0,.38-.89,1.09,1.09,0,0,0-.35-.84A1.49,1.49,0,0,0,106,73.63Zm-.34,7.81a3.13,3.13,0,0,0,2.46-1l-2.75-2.81a5.78,5.78,0,0,0-1.5,1.1,1.71,1.71,0,0,0-.42,1.11,1.44,1.44,0,0,0,.61,1.21A2.75,2.75,0,0,0,105.66,81.44Z"/><path class="cls-2" d="M125.89,82.21a4.85,4.85,0,0,1-2.44-.6,4.4,4.4,0,0,1-1.7-1.67,4.93,4.93,0,0,1,0-4.75,4.33,4.33,0,0,1,1.7-1.64,5.1,5.1,0,0,1,2.46-.61,5.23,5.23,0,0,1,1.88.34,4,4,0,0,1,1.46,1l-.61.62a3.67,3.67,0,0,0-2.71-1.08,3.94,3.94,0,0,0-2,.5,3.49,3.49,0,0,0-1.37,1.35,3.79,3.79,0,0,0-.5,1.92,3.89,3.89,0,0,0,.5,1.94A3.62,3.62,0,0,0,124,80.86a4.14,4.14,0,0,0,2,.48,3.64,3.64,0,0,0,2.71-1.08l.61.6a3.93,3.93,0,0,1-1.48,1A5,5,0,0,1,125.89,82.21Z"/><path class="cls-2" d="M138.5,82.21a5,5,0,0,1-2.46-.6,4.41,4.41,0,0,1-1.73-1.67,4.72,4.72,0,0,1-.6-2.37,4.65,4.65,0,0,1,.6-2.36A4.46,4.46,0,0,1,136,73.55a5.1,5.1,0,0,1,2.46-.61,5,5,0,0,1,2.44.61,4.42,4.42,0,0,1,1.71,1.64,4.86,4.86,0,0,1,0,4.75,4.5,4.5,0,0,1-1.71,1.67A4.85,4.85,0,0,1,138.5,82.21Zm0-.87a4,4,0,0,0,1.94-.48,3.49,3.49,0,0,0,1.37-1.35,3.79,3.79,0,0,0,.5-1.94,3.69,3.69,0,0,0-.5-1.92,3.49,3.49,0,0,0-1.37-1.35,3.77,3.77,0,0,0-1.94-.5,3.94,3.94,0,0,0-2,.5,3.49,3.49,0,0,0-1.37,1.35,3.69,3.69,0,0,0-.5,1.92,3.79,3.79,0,0,0,.5,1.94,3.49,3.49,0,0,0,1.37,1.35A4.14,4.14,0,0,0,138.5,81.34Z"/></g></g></svg>